<svg width="24" height="24" viewBox="0 0 24 24" fill="none" xmlns="http://www.w3.org/2000/svg">
<g id="Icon pack">
<path id="Vector" d="M18.7098 8.20986C18.6169 8.11613 18.5063 8.04174 18.3844 7.99097C18.2625 7.9402 18.1318 7.91406 17.9998 7.91406C17.8678 7.91406 17.7371 7.9402 17.6152 7.99097C17.4934 8.04174 17.3828 8.11613 17.2898 8.20986L12.7098 12.7899C12.6169 12.8836 12.5063 12.958 12.3844 13.0087C12.2625 13.0595 12.1318 13.0856 11.9998 13.0856C11.8678 13.0856 11.7371 13.0595 11.6152 13.0087C11.4934 12.958 11.3828 12.8836 11.2898 12.7899L6.70982 8.20986C6.61685 8.11613 6.50625 8.04174 6.38439 7.99097C6.26253 7.9402 6.13183 7.91406 5.99982 7.91406C5.8678 7.91406 5.7371 7.9402 5.61524 7.99097C5.49338 8.04174 5.38278 8.11613 5.28982 8.20986C5.10356 8.39722 4.99902 8.65067 4.99902 8.91486C4.99902 9.17904 5.10356 9.4325 5.28982 9.61986L9.87982 14.2098C10.4423 14.7716 11.2048 15.0872 11.9998 15.0872C12.7948 15.0872 13.5573 14.7716 14.1198 14.2098L18.7098 9.61986C18.8961 9.4325 19.0006 9.17904 19.0006 8.91486C19.0006 8.65067 18.8961 8.39722 18.7098 8.20986Z" fill="#3A4F39"/>
</g>
</svg>
