<svg width="24" height="24" viewBox="0 0 24 24" fill="none" xmlns="http://www.w3.org/2000/svg">
<g id="Icon pack" clip-path="url(#clip0_235_2074)">
<path id="Vector" d="M12.0001 6C11.209 6 10.4356 6.2346 9.77784 6.67412C9.12005 7.11365 8.60736 7.73836 8.30461 8.46927C8.00186 9.20017 7.92264 10.0044 8.07698 10.7804C8.23132 11.5563 8.61229 12.269 9.1717 12.8284C9.73111 13.3878 10.4438 13.7688 11.2198 13.9231C11.9957 14.0775 12.8 13.9983 13.5309 13.6955C14.2618 13.3928 14.8865 12.8801 15.326 12.2223C15.7655 11.5645 16.0001 10.7911 16.0001 10C16.0001 8.93913 15.5787 7.92172 14.8286 7.17157C14.0784 6.42143 13.061 6 12.0001 6ZM12.0001 12C11.6046 12 11.2179 11.8827 10.889 11.6629C10.5601 11.4432 10.3037 11.1308 10.1524 10.7654C10.001 10.3999 9.96138 9.99778 10.0386 9.60982C10.1157 9.22186 10.3062 8.86549 10.5859 8.58579C10.8656 8.30608 11.222 8.1156 11.6099 8.03843C11.9979 7.96126 12.4 8.00087 12.7655 8.15224C13.1309 8.30362 13.4433 8.55996 13.6631 8.88886C13.8828 9.21776 14.0001 9.60444 14.0001 10C14.0001 10.5304 13.7894 11.0391 13.4143 11.4142C13.0393 11.7893 12.5306 12 12.0001 12Z" fill="#3A4F39"/>
<path id="Vector_2" d="M11.9999 24.0001C11.1579 24.0044 10.3271 23.8069 9.57701 23.4241C8.82697 23.0413 8.17954 22.4844 7.68895 21.8C3.87795 16.543 1.94495 12.591 1.94495 10.053C1.94495 7.3863 3.00431 4.82877 4.88999 2.94309C6.77567 1.05741 9.33319 -0.00195312 11.9999 -0.00195312C14.6667 -0.00195312 17.2242 1.05741 19.1099 2.94309C20.9956 4.82877 22.0549 7.3863 22.0549 10.053C22.0549 12.591 20.1219 16.543 16.3109 21.8C15.8204 22.4844 15.1729 23.0413 14.4229 23.4241C13.6728 23.8069 12.842 24.0044 11.9999 24.0001ZM11.9999 2.18105C9.91236 2.18343 7.91096 3.01377 6.43482 4.48992C4.95867 5.96606 4.12833 7.96746 4.12595 10.055C4.12595 12.065 6.01895 15.782 9.45495 20.521C9.74664 20.9228 10.1293 21.2498 10.5717 21.4753C11.014 21.7008 11.5034 21.8183 11.9999 21.8183C12.4964 21.8183 12.9859 21.7008 13.4282 21.4753C13.8706 21.2498 14.2533 20.9228 14.5449 20.521C17.9809 15.782 19.8739 12.065 19.8739 10.055C19.8716 7.96746 19.0412 5.96606 17.5651 4.48992C16.0889 3.01377 14.0875 2.18343 11.9999 2.18105Z" fill="#3A4F39"/>
</g>
<defs>
<clipPath id="clip0_235_2074">
<rect width="24" height="24" fill="white"/>
</clipPath>
</defs>
</svg>
