<svg width="24" height="24" viewBox="0 0 24 24" fill="none" xmlns="http://www.w3.org/2000/svg">
<g id="Icon pack" clip-path="url(#clip0_235_1886)">
<path id="Vector" d="M12.9999 0.999644C12.9999 0.734427 13.1053 0.480073 13.2928 0.292537C13.4803 0.105001 13.7347 -0.000356157 13.9999 -0.000356157C16.6512 0.00255544 19.193 1.05706 21.0678 2.93179C22.9425 4.80653 23.997 7.34837 23.9999 9.99965C23.9999 10.2649 23.8945 10.5192 23.707 10.7068C23.5195 10.8943 23.2651 10.9996 22.9999 10.9996C22.7347 10.9996 22.4803 10.8943 22.2928 10.7068C22.1053 10.5192 21.9999 10.2649 21.9999 9.99965C21.9975 7.87864 21.1539 5.8452 19.6541 4.34542C18.1544 2.84565 16.1209 2.00203 13.9999 1.99964C13.7347 1.99964 13.4803 1.89429 13.2928 1.70675C13.1053 1.51921 12.9999 1.26486 12.9999 0.999644ZM13.9999 5.99964C15.0608 5.99964 16.0782 6.42107 16.8283 7.17122C17.5785 7.92136 17.9999 8.93878 17.9999 9.99965C17.9999 10.2649 18.1053 10.5192 18.2928 10.7068C18.4803 10.8943 18.7347 10.9996 18.9999 10.9996C19.2651 10.9996 19.5195 10.8943 19.707 10.7068C19.8945 10.5192 19.9999 10.2649 19.9999 9.99965C19.9983 8.40883 19.3657 6.88363 18.2408 5.75876C17.1159 4.63388 15.5907 4.00123 13.9999 3.99964C13.7347 3.99964 13.4803 4.105 13.2928 4.29254C13.1053 4.48007 12.9999 4.73443 12.9999 4.99964C12.9999 5.26486 13.1053 5.51921 13.2928 5.70675C13.4803 5.89429 13.7347 5.99964 13.9999 5.99964ZM23.0929 16.7386C23.6724 17.3198 23.9978 18.107 23.9978 18.9276C23.9978 19.7483 23.6724 20.5355 23.0929 21.1166L22.1829 22.1656C13.9929 30.0066 -5.93707 10.0816 1.78292 1.86564L2.93292 0.865644C3.51469 0.302321 4.29485 -0.00930708 5.10462 -0.00182132C5.91439 0.00566445 6.68866 0.331662 7.25992 0.905644C7.29092 0.936644 9.14391 3.34364 9.14391 3.34364C9.69374 3.92127 9.99982 4.68857 9.99851 5.48605C9.99721 6.28352 9.68863 7.04982 9.13691 7.62564L7.97892 9.08165C8.61976 10.6388 9.56198 12.0539 10.7514 13.2457C11.9409 14.4376 13.3541 15.3827 14.9099 16.0266L16.3749 14.8616C16.9508 14.3104 17.717 14.0021 18.5142 14.001C19.3114 13.9999 20.0785 14.306 20.6559 14.8556C20.6559 14.8556 23.0619 16.7076 23.0929 16.7386ZM21.7169 18.1926C21.7169 18.1926 19.3239 16.3516 19.2929 16.3206C19.0869 16.1164 18.8085 16.0018 18.5184 16.0018C18.2283 16.0018 17.9499 16.1164 17.7439 16.3206C17.7169 16.3486 15.6999 17.9556 15.6999 17.9556C15.564 18.0638 15.4022 18.1348 15.2306 18.1614C15.0589 18.1881 14.8832 18.1695 14.7209 18.1076C12.7054 17.3572 10.8746 16.1824 9.35275 14.6627C7.83085 13.1431 6.65332 11.3141 5.89992 9.29965C5.83312 9.1351 5.81134 8.95573 5.83682 8.77998C5.86231 8.60423 5.93413 8.43844 6.04492 8.29965C6.04492 8.29965 7.65192 6.28164 7.67892 6.25564C7.88318 6.04963 7.99779 5.77126 7.99779 5.48114C7.99779 5.19103 7.88318 4.91266 7.67892 4.70664C7.64792 4.67664 5.80692 2.28164 5.80692 2.28164C5.59782 2.09415 5.32492 1.99374 5.04417 2.00099C4.76341 2.00824 4.49606 2.12261 4.29692 2.32064L3.14692 3.32064C-2.49507 10.1046 14.7759 26.4176 20.7209 20.7996L21.6319 19.7496C21.8454 19.5519 21.9736 19.2789 21.9895 18.9883C22.0053 18.6978 21.9076 18.4125 21.7169 18.1926Z" fill="#3A4F39"/>
</g>
<defs>
<clipPath id="clip0_235_1886">
<rect width="24" height="24" fill="white"/>
</clipPath>
</defs>
</svg>
